<svg width="73" height="64" viewBox="0 0 73 64" fill="none" xmlns="http://www.w3.org/2000/svg">
<g filter="url(#filter0_d_359_1798)">
<path d="M65 38C65 47.9411 56.9411 56 47 56L20 56C17.2386 56 15 53.7614 15 51L15 17C15 11.4772 19.4772 7 25 7L60 7C62.7614 7 65 9.23858 65 12L65 38Z" fill="#D6DAF5"/>
</g>
<path d="M43.2878 30.9973C43.1499 31.1007 42.993 31.176 42.826 31.2188C42.659 31.2615 42.4853 31.271 42.3146 31.2466C42.144 31.2222 41.9799 31.1645 41.8315 31.0767C41.6832 30.9889 41.5537 30.8727 41.4503 30.7348C40.6592 29.6715 39.6295 28.8087 38.444 28.216C37.2586 27.6233 35.9506 27.3172 34.6253 27.3223C34.3672 27.3223 34.1148 27.2462 33.8997 27.1035C33.6847 26.9608 33.5164 26.7578 33.4161 26.52C33.348 26.3586 33.3129 26.1851 33.3129 26.0098C33.3129 25.8345 33.348 25.6611 33.4161 25.4996C33.5164 25.2618 33.6847 25.0588 33.8997 24.9162C34.1148 24.7735 34.3672 24.6973 34.6253 24.6973C35.3617 24.6972 36.0833 24.4907 36.7082 24.101C37.3331 23.7114 37.8363 23.1543 38.1604 22.493C38.4846 21.8318 38.6168 21.0929 38.5421 20.3603C38.4674 19.6276 38.1887 18.9306 37.7377 18.3485C37.2867 17.7663 36.6815 17.3222 35.9907 17.0668C35.3 16.8113 34.5515 16.7547 33.8303 16.9033C33.109 17.052 32.4438 17.3999 31.9104 17.9076C31.3769 18.4153 30.9965 19.0624 30.8124 19.7754C30.7694 19.9424 30.6938 20.0993 30.5901 20.237C30.4864 20.3748 30.3566 20.4908 30.208 20.5784C30.0595 20.666 29.8951 20.7235 29.7244 20.7476C29.5536 20.7717 29.3798 20.7619 29.2128 20.7188C29.0459 20.6757 28.889 20.6002 28.7512 20.4964C28.6135 20.3927 28.4975 20.2629 28.4099 20.1144C28.3223 19.9658 28.2648 19.8015 28.2407 19.6307C28.2166 19.46 28.2264 19.2862 28.2695 19.1192C28.525 18.1304 29.0078 17.2149 29.6794 16.4455C30.351 15.6762 31.1929 15.0742 32.1381 14.6875C33.0834 14.3007 34.1058 14.1399 35.1241 14.2179C36.1424 14.2958 37.1284 14.6103 38.0037 15.1364C38.8791 15.6625 39.6196 16.3856 40.1663 17.2483C40.713 18.1109 41.0508 19.0892 41.1529 20.1053C41.2549 21.1215 41.1184 22.1474 40.7542 23.1016C40.39 24.0557 39.8082 24.9116 39.0549 25.6013C40.8396 26.374 42.3911 27.6003 43.5552 29.1582C43.6586 29.2964 43.7337 29.4537 43.7762 29.621C43.8188 29.7883 43.8279 29.9624 43.803 30.1332C43.7782 30.3041 43.7199 30.4683 43.6315 30.6166C43.5431 30.7649 43.4263 30.8942 43.2878 30.9973ZM34.4481 41.1036C34.543 41.2529 34.6068 41.42 34.6355 41.5947C34.6643 41.7693 34.6574 41.948 34.6152 42.1199C34.5731 42.2919 34.4967 42.4535 34.3905 42.5951C34.2843 42.7367 34.1505 42.8554 33.9973 42.944C33.844 43.0326 33.6744 43.0893 33.4987 43.1106C33.323 43.132 33.1447 43.1175 32.9747 43.0682C32.8047 43.0189 32.6465 42.9357 32.5094 42.8236C32.3724 42.7115 32.2595 42.5729 32.1774 42.4161C31.3506 41.0161 30.1731 39.8558 28.761 39.0498C27.349 38.2438 25.7512 37.8199 24.1253 37.8199C22.4993 37.8199 20.9015 38.2438 19.4895 39.0498C18.0774 39.8558 16.8999 41.0161 16.0731 42.4161C15.991 42.5729 15.8781 42.7115 15.7411 42.8236C15.604 42.9357 15.4458 43.0189 15.2758 43.0682C15.1058 43.1175 14.9275 43.132 14.7518 43.1106C14.5761 43.0893 14.4065 43.0326 14.2532 42.944C14.1 42.8554 13.9662 42.7367 13.86 42.5951C13.7538 42.4535 13.6774 42.2919 13.6353 42.1199C13.5932 41.948 13.5863 41.7693 13.615 41.5947C13.6437 41.42 13.7075 41.2529 13.8024 41.1036C15.0749 38.9172 17.0151 37.1967 19.3379 36.1948C18.0309 35.1941 17.0703 33.8089 16.5912 32.2341C16.1121 30.6592 16.1385 28.9738 16.6668 27.4147C17.1951 25.8556 18.1987 24.5013 19.5365 23.5421C20.8743 22.5829 22.4791 22.0671 24.1253 22.0671C25.7714 22.0671 27.3762 22.5829 28.714 23.5421C30.0518 24.5013 31.0554 25.8556 31.5837 27.4147C32.112 28.9738 32.1384 30.6592 31.6593 32.2341C31.1802 33.8089 30.2196 35.1941 28.9126 36.1948C31.2354 37.1967 33.1756 38.9172 34.4481 41.1036ZM24.1253 35.1973C25.1636 35.1973 26.1786 34.8894 27.042 34.3125C27.9054 33.7357 28.5783 32.9157 28.9756 31.9564C29.373 30.9971 29.4769 29.9415 29.2744 28.9231C29.0718 27.9047 28.5718 26.9692 27.8376 26.235C27.1033 25.5008 26.1679 25.0008 25.1495 24.7982C24.1311 24.5956 23.0755 24.6996 22.1162 25.0969C21.1569 25.4943 20.3369 26.1672 19.76 27.0306C19.1832 27.8939 18.8753 28.909 18.8753 29.9473C18.8753 31.3397 19.4284 32.6751 20.4129 33.6596C21.3975 34.6442 22.7329 35.1973 24.1253 35.1973ZM14.9378 26.0098C14.9378 25.6617 14.7995 25.3279 14.5533 25.0817C14.3072 24.8356 13.9734 24.6973 13.6253 24.6973C12.8888 24.6972 12.1672 24.4907 11.5423 24.101C10.9174 23.7114 10.4143 23.1543 10.0901 22.493C9.76592 21.8318 9.63369 21.0929 9.70842 20.3603C9.78315 19.6276 10.0618 18.9306 10.5128 18.3485C10.9638 17.7663 11.5691 17.3222 12.2598 17.0668C12.9505 16.8113 13.699 16.7547 14.4202 16.9033C15.1415 17.052 15.8067 17.3999 16.3401 17.9076C16.8736 18.4153 17.254 19.0624 17.4381 19.7754C17.5251 20.1127 17.7425 20.4015 18.0425 20.5784C18.3425 20.7553 18.7005 20.8058 19.0377 20.7188C19.3749 20.6318 19.6637 20.4144 19.8406 20.1144C20.0176 19.8144 20.0681 19.4564 19.981 19.1192C19.7255 18.1304 19.2427 17.2149 18.5711 16.4455C17.8995 15.6762 17.0576 15.0742 16.1124 14.6875C15.1672 14.3007 14.1447 14.1399 13.1264 14.2179C12.1081 14.2958 11.1221 14.6103 10.2468 15.1364C9.37142 15.6625 8.63094 16.3856 8.08424 17.2483C7.53754 18.1109 7.19972 19.0892 7.09765 20.1053C6.99558 21.1215 7.13207 22.1474 7.49628 23.1016C7.86048 24.0557 8.44235 24.9116 9.19557 25.6013C7.41267 26.3748 5.86299 27.6009 4.70025 29.1582C4.49118 29.4367 4.40129 29.7868 4.45036 30.1315C4.49944 30.4763 4.68346 30.7874 4.96193 30.9965C5.24041 31.2056 5.59054 31.2955 5.93529 31.2464C6.28004 31.1973 6.59118 31.0133 6.80025 30.7348C7.59134 29.6715 8.62104 28.8087 9.80647 28.216C10.9919 27.6233 12.2999 27.3172 13.6253 27.3223C13.9734 27.3223 14.3072 27.184 14.5533 26.9379C14.7995 26.6917 14.9378 26.3579 14.9378 26.0098Z" fill="#0A0E29"/>
<defs>
<filter id="filter0_d_359_1798" x="15" y="7" width="58" height="57" filterUnits="userSpaceOnUse" color-interpolation-filters="sRGB">
<feFlood flood-opacity="0" result="BackgroundImageFix"/>
<feColorMatrix in="SourceAlpha" type="matrix" values="0 0 0 0 0 0 0 0 0 0 0 0 0 0 0 0 0 0 127 0" result="hardAlpha"/>
<feOffset dx="4" dy="4"/>
<feGaussianBlur stdDeviation="2"/>
<feComposite in2="hardAlpha" operator="out"/>
<feColorMatrix type="matrix" values="0 0 0 0 0 0 0 0 0 0 0 0 0 0 0 0 0 0 0.25 0"/>
<feBlend mode="normal" in2="BackgroundImageFix" result="effect1_dropShadow_359_1798"/>
<feBlend mode="normal" in="SourceGraphic" in2="effect1_dropShadow_359_1798" result="shape"/>
</filter>
</defs>
</svg>
