<svg width="68" height="64" viewBox="0 0 68 64" fill="none" xmlns="http://www.w3.org/2000/svg">
<g filter="url(#filter0_d_359_1818)">
<path d="M60 38C60 47.9411 51.9411 56 42 56L20 56C17.2386 56 15 53.7614 15 51L15 17C15 11.4772 19.4772 7 25 7L55 7C57.7614 7 60 9.23858 60 12L60 38Z" fill="#D6DAF5"/>
</g>
<g clip-path="url(#clip0_359_1818)">
<path d="M30.5625 14.0001H8.25C6.85761 14.0001 5.52226 14.5532 4.53769 15.5378C3.55312 16.5224 3 17.8577 3 19.2501V46.8126C3 47.1607 3.13828 47.4946 3.38442 47.7407C3.63056 47.9868 3.9644 48.1251 4.3125 48.1251H27.9375C28.2856 48.1251 28.6194 47.9868 28.8656 47.7407C29.1117 47.4946 29.25 47.1607 29.25 46.8126C29.25 46.4645 29.1117 46.1307 28.8656 45.8845C28.6194 45.6384 28.2856 45.5001 27.9375 45.5001H5.625C5.625 44.8039 5.90156 44.1362 6.39384 43.644C6.88613 43.1517 7.55381 42.8751 8.25 42.8751H30.5625C30.9106 42.8751 31.2444 42.7368 31.4906 42.4907C31.7367 42.2446 31.875 41.9107 31.875 41.5626V15.3126C31.875 14.9645 31.7367 14.6307 31.4906 14.3845C31.2444 14.1384 30.9106 14.0001 30.5625 14.0001ZM29.25 40.2501H8.25C7.32821 40.2489 6.42252 40.4917 5.625 40.9539V19.2501C5.625 18.5539 5.90156 17.8862 6.39384 17.394C6.88613 16.9017 7.55381 16.6251 8.25 16.6251H29.25V40.2501Z" fill="#0A0E29"/>
</g>
<defs>
<filter id="filter0_d_359_1818" x="15" y="7" width="53" height="57" filterUnits="userSpaceOnUse" color-interpolation-filters="sRGB">
<feFlood flood-opacity="0" result="BackgroundImageFix"/>
<feColorMatrix in="SourceAlpha" type="matrix" values="0 0 0 0 0 0 0 0 0 0 0 0 0 0 0 0 0 0 127 0" result="hardAlpha"/>
<feOffset dx="4" dy="4"/>
<feGaussianBlur stdDeviation="2"/>
<feComposite in2="hardAlpha" operator="out"/>
<feColorMatrix type="matrix" values="0 0 0 0 0 0 0 0 0 0 0 0 0 0 0 0 0 0 0.25 0"/>
<feBlend mode="normal" in2="BackgroundImageFix" result="effect1_dropShadow_359_1818"/>
<feBlend mode="normal" in="SourceGraphic" in2="effect1_dropShadow_359_1818" result="shape"/>
</filter>
<clipPath id="clip0_359_1818">
<rect width="42" height="42" fill="white" transform="translate(3.12524 6.32239)"/>
</clipPath>
</defs>
</svg>
