<svg width="20" height="20" viewBox="0 0 20 20" fill="none" xmlns="http://www.w3.org/2000/svg">
<g clip-path="url(#clip0_359_1468)">
<path d="M15.5193 6.5855C15.3861 6.45604 15.1992 6.39722 15.0163 6.42729C14.8331 6.45725 14.6748 6.57229 14.5898 6.73737C14.2975 7.3053 13.9262 7.82722 13.4893 8.28858C13.5328 7.9553 13.5548 7.62003 13.5548 7.28386C13.5548 6.63882 13.4683 5.97503 13.2977 5.31069C12.7369 3.12862 11.2662 1.28327 9.26284 0.247841C9.08843 0.157724 8.88062 0.160888 8.70901 0.256279C8.53741 0.351708 8.42503 0.526669 8.40964 0.722372C8.25347 2.70534 7.23206 4.5094 5.60577 5.67315C5.58425 5.68866 5.56288 5.70436 5.54151 5.71999C5.49726 5.75237 5.45554 5.783 5.41655 5.8087C5.41046 5.81276 5.4044 5.8169 5.39847 5.82116C4.37565 6.55347 3.53171 7.52964 2.95776 8.64444C2.37456 9.77839 2.07886 10.9952 2.07886 12.261C2.07886 12.9059 2.1653 13.5697 2.33581 14.2341C3.23562 17.7364 6.38734 20.1824 10.0002 20.1824C14.3678 20.1824 17.9211 16.6289 17.9211 12.261C17.9211 10.1071 17.0682 8.09151 15.5193 6.5855Z" fill="#0A0E29"/>
<circle cx="9.41178" cy="11.7647" r="2.35294" fill="#D6DAF5"/>
</g>
<defs>
<clipPath id="clip0_359_1468">
<rect width="20" height="20" fill="white"/>
</clipPath>
</defs>
</svg>
