<svg width="125" height="135" viewBox="0 0 125 135" fill="none" xmlns="http://www.w3.org/2000/svg">
<path d="M93.7173 0.947388C95.0233 -1.04813 97.8655 0.395284 97.0246 2.62707L89.969 21.3489C80.8583 45.5237 88.4186 72.0714 108.256 85.5635L123.619 96.0122C125.45 97.2581 123.892 100.325 121.806 99.5813L104.306 93.3404C81.7095 85.2818 55.8134 94.8381 41.6678 116.456L30.7129 133.197C29.4067 135.193 26.5646 133.75 27.4055 131.518L34.4611 112.796C43.5717 88.6211 36.0115 62.0734 16.1739 48.5812L0.811141 38.1324C-1.02003 36.8867 0.537616 33.8196 2.62375 34.5633L20.1236 40.8043C42.7206 48.863 68.6167 39.3066 82.7624 17.6889L93.7173 0.947388Z" fill="#8490E1"/>
</svg>
