<svg width="73" height="64" viewBox="0 0 73 64" fill="none" xmlns="http://www.w3.org/2000/svg">
<g filter="url(#filter0_d_359_1790)">
<path d="M65 38C65 47.9411 56.9411 56 47 56L20 56C17.2386 56 15 53.7614 15 51L15 17C15 11.4772 19.4772 7 25 7L60 7C62.7614 7 65 9.23858 65 12L65 38Z" fill="#D6DAF5"/>
</g>
<path d="M44.1389 13.5834L24.6389 7.0834C24.3053 6.9722 23.9447 6.9722 23.6111 7.0834L4.11109 13.5834C3.78753 13.6913 3.5061 13.8982 3.30669 14.1749C3.10727 14.4516 2.99997 14.784 3 15.1251V31.3751C3 31.8061 3.1712 32.2194 3.47595 32.5242C3.7807 32.8289 4.19402 33.0001 4.625 33.0001C5.05598 33.0001 5.4693 32.8289 5.77405 32.5242C6.07879 32.2194 6.25 31.8061 6.25 31.3751V17.3798L13.073 19.6528C11.2602 22.5814 10.6837 26.1098 11.4702 29.4631C12.2566 32.8164 14.3417 35.7206 17.2675 37.5379C13.6112 38.972 10.4506 41.5659 8.13906 45.1125C8.01884 45.2911 7.93534 45.4919 7.89341 45.7032C7.85147 45.9144 7.85194 46.1319 7.89479 46.3429C7.93763 46.5539 8.022 46.7544 8.14299 46.9325C8.26398 47.1107 8.41917 47.263 8.59955 47.3807C8.77993 47.4983 8.98189 47.5789 9.1937 47.6179C9.40551 47.6568 9.62295 47.6532 9.83336 47.6073C10.0438 47.5615 10.243 47.4742 10.4194 47.3507C10.5958 47.2272 10.7459 47.0698 10.8609 46.8878C13.922 42.1915 18.7564 39.5001 24.125 39.5001C29.4936 39.5001 34.328 42.1915 37.3891 46.8878C37.6274 47.242 37.9956 47.4882 38.414 47.5732C38.8324 47.6581 39.2674 47.575 39.625 47.3417C39.9827 47.1085 40.2341 46.7439 40.325 46.3267C40.4159 45.9095 40.339 45.4734 40.1109 45.1125C37.7994 41.5659 34.6266 38.972 30.9825 37.5379C33.9055 35.7207 35.9886 32.8184 36.7749 29.4675C37.5612 26.1167 36.9866 22.5907 35.177 19.6629L44.1389 16.677C44.4625 16.5692 44.744 16.3623 44.9435 16.0856C45.143 15.8089 45.2504 15.4764 45.2504 15.1353C45.2504 14.7942 45.143 14.4617 44.9435 14.185C44.744 13.9083 44.4625 13.7014 44.1389 13.5936V13.5834ZM33.875 26.5001C33.8754 28.0415 33.5104 29.5611 32.8098 30.9341C32.1093 32.3072 31.0932 33.4945 29.8449 34.3988C28.5966 35.3031 27.1516 35.8985 25.6286 36.1362C24.1057 36.374 22.548 36.2472 21.0835 35.7664C19.619 35.2855 18.2894 34.4643 17.2037 33.3701C16.118 32.2758 15.3073 30.9398 14.8379 29.4716C14.3686 28.0033 14.2541 26.4447 14.5037 24.9237C14.7534 23.4026 15.3602 21.9624 16.2742 20.7212L23.6111 23.1587C23.9447 23.2699 24.3053 23.2699 24.6389 23.1587L31.9758 20.7212C33.2103 22.395 33.876 24.4203 33.875 26.5001ZM24.125 19.9128L9.76406 15.1251L24.125 10.3375L38.4859 15.1251L24.125 19.9128Z" fill="#0A0E29"/>
<defs>
<filter id="filter0_d_359_1790" x="15" y="7" width="58" height="57" filterUnits="userSpaceOnUse" color-interpolation-filters="sRGB">
<feFlood flood-opacity="0" result="BackgroundImageFix"/>
<feColorMatrix in="SourceAlpha" type="matrix" values="0 0 0 0 0 0 0 0 0 0 0 0 0 0 0 0 0 0 127 0" result="hardAlpha"/>
<feOffset dx="4" dy="4"/>
<feGaussianBlur stdDeviation="2"/>
<feComposite in2="hardAlpha" operator="out"/>
<feColorMatrix type="matrix" values="0 0 0 0 0 0 0 0 0 0 0 0 0 0 0 0 0 0 0.25 0"/>
<feBlend mode="normal" in2="BackgroundImageFix" result="effect1_dropShadow_359_1790"/>
<feBlend mode="normal" in="SourceGraphic" in2="effect1_dropShadow_359_1790" result="shape"/>
</filter>
</defs>
</svg>
