<svg width="492" height="492" viewBox="0 0 492 492" fill="none" xmlns="http://www.w3.org/2000/svg">
<path d="M268.907 161.294C266.865 162.342 270.231 166.098 271.008 163.176C271.131 162.278 269.825 160.821 268.907 161.294Z" fill="#0A0E29"/>
<path d="M280.752 158.01C280.875 157.112 279.571 155.663 278.651 156.13C276.614 157.193 279.975 160.932 280.752 158.01Z" fill="#0A0E29"/>
<path d="M163.996 308.528C163.678 308.602 163.403 308.799 163.231 309.077C163.059 309.354 163.004 309.688 163.078 310.006C163.152 310.324 163.35 310.599 163.627 310.771C163.905 310.943 164.239 310.998 164.557 310.924C182.894 306.663 201.917 306.258 220.42 309.734C238.923 313.21 256.502 320.491 272.044 331.115C272.306 331.116 272.562 331.032 272.774 330.876C272.985 330.721 273.142 330.502 273.22 330.251C273.298 330 273.294 329.731 273.208 329.483C273.122 329.235 272.959 329.021 272.742 328.872C257.024 318.112 239.236 310.747 220.512 307.244C201.789 303.741 182.541 304.178 163.996 308.528Z" fill="#0A0E29"/>
<path d="M280.159 321.127C251.963 303.494 220.45 291.642 187.016 296.559C186.702 296.612 186.42 296.784 186.231 297.04C186.041 297.296 185.958 297.615 185.999 297.931C186.04 298.247 186.202 298.535 186.451 298.734C186.7 298.933 187.016 299.027 187.334 298.997C207.946 296.295 228.907 299.008 248.152 306.869C258.767 311.574 269.028 317.037 278.858 323.216C279.135 323.388 279.469 323.444 279.787 323.37C280.105 323.296 280.38 323.099 280.553 322.822C280.725 322.545 280.781 322.211 280.707 321.893C280.633 321.575 280.436 321.3 280.159 321.127Z" fill="#0A0E29"/>
<path d="M209.031 287.59C208.705 287.602 208.396 287.743 208.174 287.982C207.952 288.221 207.833 288.538 207.845 288.864C207.857 289.191 207.998 289.499 208.237 289.721C208.476 289.943 208.793 290.062 209.119 290.05C237.482 289.044 265.239 298.413 287.19 316.402C288.388 317.425 290.014 315.501 288.752 314.5C266.293 296.21 237.98 286.653 209.031 287.59Z" fill="#0A0E29"/>
<path d="M202.266 278.633C201.94 278.657 201.636 278.81 201.422 279.057C201.209 279.305 201.102 279.627 201.126 279.953C201.149 280.279 201.302 280.583 201.549 280.797C201.797 281.01 202.119 281.117 202.445 281.093C236.711 278.556 270.635 289.332 297.155 311.179C298.344 312.205 299.984 310.281 298.715 309.28C271.689 287.066 237.157 276.093 202.266 278.633Z" fill="#0A0E29"/>
<path d="M214.224 273.113C230.802 270.834 247.681 272.353 263.586 277.555C279.49 282.758 294.004 291.507 306.031 303.142C307.138 304.262 308.922 302.478 307.741 301.376C295.43 289.504 280.589 280.575 264.334 275.258C248.078 269.941 230.829 268.375 213.882 270.678C213.565 270.73 213.281 270.904 213.091 271.163C212.901 271.422 212.82 271.745 212.864 272.062C212.909 272.38 213.076 272.668 213.33 272.865C213.584 273.061 213.905 273.15 214.224 273.113Z" fill="#0A0E29"/>
<path d="M88.1562 278.754C81.4773 280.368 80.9681 289.726 88.5129 289.824C98.6948 289.881 98.9187 276.151 88.1562 278.754ZM93.3222 285.135C92.5986 286.007 91.6463 286.661 90.5722 287.022C89.498 287.383 88.3445 287.437 87.2411 287.18C83.8856 285.95 85.4453 281.972 88.9089 281.096C91.6002 279.802 95.1869 282.424 93.3197 285.135H93.3222Z" fill="#0A0E29"/>
<path d="M376.574 310.237C375.201 310.237 374.577 310.237 371.002 332.899C369.28 343.762 367.671 355.238 367.388 357.349C367.538 359.882 372.458 358.692 374.215 359.071C415.098 358.569 416.087 313.28 376.574 310.237ZM398.062 347.474C390.968 355.317 379.14 357.23 369.998 356.419C371.445 345.841 375.708 317.206 377.253 312.724C396.436 313.681 411.838 332.244 398.062 347.474Z" fill="#0A0E29"/>
<path d="M479.166 136.15C474.605 132.723 469.203 135.634 465.112 131.995C464.703 131.598 464.215 131.292 463.68 131.095C463.145 130.899 462.575 130.817 462.006 130.855C461.438 130.893 460.883 131.05 460.379 131.316C459.875 131.582 459.432 131.951 459.08 132.399C457.673 134.134 456.858 136.273 456.753 138.504C442.261 153.434 425.093 164.969 398.205 171.481C403.83 165.71 408.425 159.019 411.792 151.697C419.91 131.897 387.012 116.765 372.677 113.169C372.043 110.485 373.986 106.2 374.776 103.449C375.674 99.8258 373.054 98.0373 371.135 99.0213C366.409 100.581 364.141 105.791 361.398 109.38C356.038 116.514 360.082 118.667 366.377 121.887C366.19 122.131 366.106 122.438 366.145 122.743C366.183 123.048 366.34 123.326 366.582 123.516C369.834 126.748 385.77 139.417 379.551 144.239C376.185 146.839 366.102 154.63 360.247 159.611C348.825 159.06 343.841 159.033 336.464 160.305C336.375 160.321 336.294 160.366 336.234 160.433C336.173 160.5 336.137 160.585 336.13 160.675C336.124 160.765 336.148 160.855 336.198 160.93C336.248 161.005 336.322 161.061 336.407 161.09C358.166 171.584 362.077 199.694 355.044 219.761C359.873 219.426 368.341 219.967 372.35 218.1C387.504 216.597 408.926 212.442 420.207 206.029C431.754 199.741 441.761 190.968 449.506 180.343C457.251 169.719 462.541 157.507 464.994 144.59C469.395 142.95 473.911 141.634 478.504 140.654C480.635 140.32 482.194 137.22 479.166 136.15ZM382.348 119.036C395.602 124.224 415.501 136.964 409.55 150.676C405.728 159.007 400.259 166.477 393.474 172.639C391.066 173.225 387.893 173.85 385.433 174.396C392.608 167.249 399.134 159.479 404.935 151.178C406.562 149.089 407.593 146.598 407.917 143.97C406.658 135.373 398.569 132.92 391.885 128.349C388.428 126.424 385.099 124.279 381.917 121.926C382.204 120.99 382.349 120.015 382.348 119.036ZM368.85 120.453L363.568 117.56C362.235 116.842 360.862 115.708 361.539 114.062C363.126 111.154 364.935 108.372 366.951 105.742C368.129 103.651 370.028 102.06 372.294 101.267C372.471 101.356 372.594 102.064 372.441 102.711C371.206 105.988 370.352 109.395 369.895 112.866C369.752 113.58 369.789 114.318 370.004 115.014C370.219 115.71 370.604 116.341 371.125 116.849C370.821 118.283 370.014 119.561 368.85 120.453ZM372.146 125.198C371.29 124.413 370.478 123.602 369.654 122.896C370.839 122.171 371.829 121.168 372.536 119.972C373.244 118.777 373.648 117.427 373.713 116.04C375.652 116.628 377.693 117.309 379.738 118.052C380.759 122.578 376.424 127.373 372.146 125.198ZM357.315 161.867C358.653 161.746 360.24 162.516 361.445 161.833C367.182 156.913 377.627 148.844 380.99 146.243C387.802 140.763 379.406 132.731 374.958 128.099C376.205 128.046 377.415 127.664 378.466 126.99C379.516 126.316 380.369 125.375 380.936 124.263C387.652 130.222 403.405 134.78 405.464 143.84C405.163 145.998 404.292 148.036 402.94 149.744C396.943 158.339 390.159 166.358 382.677 173.697C381.462 172.221 378.515 168.661 376.933 170.868C376.87 171.017 376.836 171.177 376.834 171.338C376.832 171.5 376.862 171.661 376.923 171.811C376.983 171.961 377.072 172.098 377.186 172.213C377.299 172.329 377.434 172.421 377.583 172.484C379.069 173.187 380.304 174.329 381.12 175.756C381.949 178.838 387.314 176.221 389.516 176.041C415.513 170.856 438.94 160.128 452.896 145.537C454.508 145.91 455.968 146.769 457.078 147.997C443.078 182.991 413.823 203.375 376.705 204.162C377.964 187.965 372.867 169.759 357.315 161.867ZM446.281 180.809C429.988 203.881 404.259 212.275 375.229 215.31C376.003 212.479 376.438 209.566 376.522 206.632C414.379 205.913 444.278 185.357 458.864 150.022C463.25 155.562 450.426 174.944 446.281 180.809ZM461.742 148.152C461.634 148.59 461.496 149.021 461.38 149.456C459.916 146.796 457.594 144.71 454.792 143.54C455.936 142.403 457.523 139.948 459.171 140.573C459.902 140.825 460.565 141.24 461.11 141.788C461.655 142.335 462.067 143.001 462.316 143.732C462.564 144.464 462.641 145.243 462.542 146.009C462.442 146.775 462.169 147.508 461.742 148.152ZM464.433 142.084C463.315 140.431 461.775 139.107 459.973 138.249C458.29 138.285 460.433 134.495 460.972 133.951C462.608 131.083 467.294 138.991 475.732 138.819C471.909 139.7 468.137 140.789 464.433 142.084Z" fill="#0A0E29"/>
<path d="M276.523 154.657C277.682 154.334 279.003 153.513 280.049 154.071C280.352 154.192 280.69 154.188 280.99 154.059C281.29 153.93 281.526 153.688 281.648 153.385C281.769 153.082 281.764 152.743 281.636 152.443C281.507 152.143 281.264 151.907 280.961 151.786C279.505 151.077 274.605 151.419 275.468 154.061C275.578 154.243 275.732 154.394 275.917 154.498C276.102 154.602 276.311 154.657 276.523 154.657Z" fill="#0A0E29"/>
<path d="M267.513 161.193C267.774 160.284 268.311 159.48 269.05 158.89C269.311 158.695 269.484 158.403 269.53 158.08C269.576 157.757 269.492 157.429 269.296 157.168C269.1 156.907 268.809 156.735 268.486 156.689C268.163 156.643 267.835 156.727 267.574 156.922C266.386 157.853 265.529 159.14 265.129 160.595C265.066 160.905 265.124 161.228 265.293 161.496C265.462 161.764 265.728 161.957 266.035 162.034C266.342 162.111 266.667 162.066 266.942 161.91C267.218 161.753 267.422 161.496 267.513 161.193Z" fill="#0A0E29"/>
<path d="M279.884 167.491C278.74 168.603 280.511 170.374 281.623 169.23C282.115 168.738 282.533 168.266 282.956 167.781C282.334 168.861 281.643 170.31 283.493 170.585C285.908 169.894 285.953 166.298 284.455 164.608C282.55 162.977 281.244 166.553 279.884 167.491Z" fill="#0A0E29"/>
<path d="M274.91 166.849C276.361 167.532 279.468 165.176 277.694 163.683C276.902 163.06 275.972 163.929 275.616 164.485C274.929 163.715 276.526 158.386 274.241 158.477C273.914 158.477 273.601 158.607 273.371 158.837C273.14 159.068 273.011 159.381 273.011 159.707C273.17 161.69 272.223 166.226 274.91 166.849Z" fill="#0A0E29"/>
<path d="M428.131 315.329C420.069 299.01 399.841 289.342 376.144 285.43C385.964 276.587 389.878 272.926 390.119 272.444C391.125 268.456 390.431 254.666 392.38 250.995C392.48 250.734 392.494 250.447 392.421 250.177C392.348 249.906 392.192 249.666 391.974 249.49C378.425 240.249 363.606 233.024 347.982 228.041C361.696 206.423 355.878 167.619 327.453 160.305C332.811 152.657 327.222 140.972 317.837 141.742C311.638 141.835 305.458 142.441 299.36 143.555C300.912 142.246 300.098 139.373 298.986 138.32C303.975 135.513 297.647 126.674 292.836 127.117C293.082 123.329 290.44 116.406 285.999 119.422C284.699 117.507 283.053 115.851 281.146 114.539C278.661 113.063 275.471 112.721 274.098 115.398C272.047 114.082 269.737 113.221 267.326 112.871C264.196 112.827 261.421 114.839 261.8 117.646C258.474 116.908 254.814 117.26 253.003 120.598C252.13 122.603 254.108 123.742 250.996 123.594C246.634 123.991 243.862 129.934 248.29 132.724C243.456 133.828 239.68 142.583 246.263 143.963C243.936 147.161 242.342 151.929 244.996 155.149C210.814 160.871 183.57 165.636 157.809 170.733C145.373 176.337 136.067 183.717 124.149 189.921C123.869 190.066 123.656 190.313 123.553 190.61C123.45 190.908 123.465 191.233 123.595 191.52C125.411 195.515 158.557 198.408 165.181 198.957C195.643 194.543 225.844 188.494 255.655 180.834C245.23 189.173 230.334 196.966 229.041 211.842C196.431 208.135 166.013 212.858 140.257 229.271C96.6778 255.138 51.5023 281.071 11.1436 313.098C12.2825 320.599 14.8336 328.166 15.2149 335.221C15.239 335.494 15.3538 335.751 15.5408 335.952C15.7279 336.152 15.9765 336.284 16.2473 336.327C16.5181 336.37 16.7955 336.321 17.0354 336.189C17.2753 336.056 17.464 335.847 17.5715 335.595C46.7225 327.071 79.6742 326.854 109.856 333.541C134.414 337.851 126.311 349.381 133.757 351.007C134.203 351.117 142.498 352.146 142.613 352.01C144.171 351.878 144.872 350.104 144.827 348.886C145.713 337.57 152.389 337.302 163.184 337.816C213.513 341.083 231.633 349.354 273.355 375.946C273.511 376.048 273.69 376.112 273.875 376.132C274.061 376.152 274.248 376.128 274.423 376.062C274.598 375.997 274.754 375.89 274.88 375.753C275.006 375.615 275.098 375.449 275.148 375.27C299.952 353.13 336.439 320.958 352.678 306.39C346.432 332.003 340.725 357.914 334.282 389.855C334.249 390.02 334.25 390.191 334.285 390.356C334.321 390.52 334.39 390.676 334.488 390.813C334.587 390.95 334.712 391.066 334.857 391.152C335.001 391.239 335.163 391.295 335.33 391.316C360.887 394.583 393.934 395.388 414.143 379.122C433.405 364.657 440.094 336.35 428.131 315.329ZM317.893 144.202C326.607 144.138 329.559 153.764 324.823 159.648C321.461 158.857 318.021 158.445 314.567 158.418C315.133 155.921 315.006 153.317 314.2 150.887C313.393 148.457 311.938 146.293 309.992 144.63C312.59 144.384 315.229 144.224 317.893 144.202ZM310.831 193.198C310.142 190.054 312.919 189.584 313.605 192.75C314.913 202.389 313.853 212.201 310.516 221.338C298.157 219.705 285.587 221.141 273.916 225.52C270.048 223.383 266.023 221.545 261.877 220.019C268.137 215.507 276.105 209.173 282.243 205.038C288.555 212.632 297.309 217.797 307.008 219.65C307.286 219.641 307.553 219.541 307.769 219.367C307.986 219.192 308.14 218.953 308.208 218.683C311.026 210.502 311.924 201.782 310.831 193.198ZM298.258 157.508C299.221 155.784 299.702 153.832 299.65 151.858C299.599 149.884 299.016 147.96 297.965 146.288C300.575 145.877 303.446 145.272 306.329 145.058C308.68 146.316 310.527 148.346 311.557 150.806C312.587 153.265 312.739 156.005 311.987 158.563C307.733 158.915 299.352 159.752 296.489 160.039C295.406 159.255 298.031 158.694 298.258 157.508ZM266.172 153.053C269.805 154.588 273.217 151.375 274.622 148.01C275.9 148.528 277.316 148.601 278.641 148.218C279.966 147.835 281.124 147.017 281.928 145.897C282.376 146.297 282.929 146.561 283.523 146.658C284.116 146.754 284.724 146.679 285.276 146.44C285.99 147.631 287.635 149.801 288.9 151.434C288.817 152.44 289.001 153.45 289.434 154.362C289.714 154.918 290.165 155.37 290.721 155.651C291.277 155.932 291.908 156.027 292.522 155.922C293.136 155.818 293.7 155.519 294.132 155.07C294.563 154.62 294.839 154.045 294.919 153.427C294.9 153.095 295.854 153.112 296.174 152.426C296.712 151.74 296.975 150.879 296.912 150.01C297.475 152.367 297.271 156.75 294.44 157.424C293.48 157.479 292.572 158.654 293.143 159.547C295.272 163.165 297.919 166.453 300.998 169.306C301.844 176.396 290.912 185.483 286.427 176.775C288.073 175.286 288.664 177.213 289.96 178.317C290.698 179.055 291.95 177.825 291.205 177.072C290.25 176.282 289.412 175.36 288.715 174.334C288.469 173.842 287.977 173.842 287.47 174.088C284.761 176.114 281.37 177.006 278.014 176.578C276.114 176.108 274.329 175.258 272.767 174.077C271.206 172.897 269.9 171.412 268.929 169.712C268.733 168.524 268.401 166.541 266.804 165.776C264.932 164.43 264.423 161.328 263.471 159.201C264.783 157.358 265.703 155.266 266.172 153.053ZM279.015 178.349C273.008 182 264.009 176.723 263.586 169.948C263.626 169.407 263.871 168.902 264.271 168.536C264.671 168.17 265.197 167.971 265.739 167.98C266.329 168.379 266.44 169.919 266.6 170.62C267.02 172.3 269.043 174.984 270.578 174.354C272.801 176.682 275.806 178.105 279.015 178.349ZM136.643 193.109C133.418 192.674 130.229 192.005 127.101 191.109C130.419 190.056 133.72 185.205 137.066 187.776C137.686 188.696 136.185 189.126 136.18 189.978C135.971 191.395 137.767 191.114 138.281 192.024C138.115 192.325 137.88 192.582 137.595 192.774C137.31 192.966 136.984 193.088 136.643 193.129V193.109ZM164.933 196.445C156.554 195.751 147.484 194.723 140.171 193.66C140.401 193.344 140.563 192.984 140.645 192.601C140.728 192.219 140.729 191.824 140.649 191.441C140.569 191.058 140.409 190.696 140.181 190.379C139.952 190.062 139.66 189.796 139.322 189.599C139.531 189.179 139.647 188.718 139.66 188.248C139.673 187.779 139.584 187.312 139.399 186.881C139.213 186.45 138.936 186.064 138.586 185.751C138.237 185.438 137.823 185.204 137.374 185.067C144.16 180.622 151.227 176.62 158.53 173.087C161.223 173.202 163.811 174.17 165.919 175.851C168.028 177.533 169.547 179.84 170.259 182.44C170.971 185.041 170.839 187.801 169.881 190.321C168.924 192.842 167.19 194.993 164.93 196.465L164.933 196.445ZM169.361 195.85C170.939 194.069 172.076 191.943 172.681 189.643C173.285 187.342 173.34 184.931 172.842 182.606C172.343 180.28 171.304 178.104 169.81 176.253C168.315 174.403 166.406 172.93 164.237 171.953C189.599 167.095 216.868 162.278 250.966 156.637C251.053 159.018 253.05 162.03 255.67 160.748C256.408 160.256 256.423 159.584 257.112 160.642C257.403 161.004 257.767 161.301 258.18 161.514C258.594 161.726 259.047 161.849 259.511 161.875C259.975 161.9 260.44 161.828 260.874 161.662C261.308 161.496 261.703 161.241 262.032 160.913C262.661 162.575 263.405 164.192 264.258 165.751C260.223 167.063 260.654 171.995 262.664 174.999C261.714 175.633 260.821 176.349 259.995 177.139C230.143 185.006 199.89 191.258 169.366 195.869L169.361 195.85ZM133.632 347.927C133.478 347.975 133.316 347.993 133.155 347.979C132.994 347.965 132.837 347.919 132.694 347.844C132.551 347.769 132.424 347.667 132.32 347.543C132.216 347.419 132.138 347.276 132.089 347.122C130.343 341.549 126.904 336.658 122.25 333.128C117.597 329.598 111.96 327.605 106.122 327.425C105.795 327.425 105.483 327.296 105.252 327.065C105.021 326.834 104.892 326.521 104.892 326.195C104.892 325.869 105.021 325.556 105.252 325.325C105.483 325.095 105.795 324.965 106.122 324.965C112.486 325.134 118.638 327.291 123.714 331.134C128.79 334.978 132.535 340.314 134.424 346.394C134.519 346.702 134.49 347.036 134.342 347.323C134.193 347.609 133.939 347.826 133.632 347.927ZM134.289 337.103C117.45 310.781 47.7311 307.054 18.7425 310.215C55.4186 282.225 95.7405 258.427 134.776 235.372C162.274 216.787 193.816 209.916 229.006 214.317C229.577 221.628 235.267 222.329 241.936 222.575C252.145 222.575 264.159 211.173 268.639 200.72C271.809 194.726 274.372 188.431 276.292 181.928C277.542 181.753 278.749 181.351 279.854 180.74C273.562 193.825 271.212 210.312 258.89 219.129C257.754 219.953 258.718 221.286 259.65 221.776C263.928 223.441 267.584 224.974 271.19 226.801C266.401 228.855 261.434 232.705 256.777 234.277C230.915 218.233 195.102 218.368 165.088 223.699C137.652 236.72 114.459 254.666 87.9448 269.369C71.0618 279.157 53.6056 289.278 36.9219 300.235C36.6965 300.383 36.5261 300.602 36.4371 300.856C36.3481 301.111 36.3453 301.388 36.4292 301.645C36.5131 301.901 36.6791 302.123 36.9015 302.276C37.1239 302.429 37.3904 302.504 37.6599 302.491C61.1467 300.936 84.7172 303.788 107.155 310.901C117.059 313.981 129.199 318.847 135.295 329.211C134.498 331.76 134.158 334.43 134.289 337.098V337.103ZM150.493 266.24C126.06 272.223 129.561 263.615 134.604 243.785C148.933 235.893 160.35 224.526 178.057 224.105C204.787 222.137 232.529 222.221 254.622 235.871C244.165 241.802 233.712 248.078 223.355 254.69C221.488 255.5 219.739 257.854 217.744 257.492C195.085 258.077 172.548 261.007 150.493 266.235V266.24ZM214.945 260.068C207.1 265.18 199.019 270.71 190.328 276.914C187.545 276.547 181.732 278.688 179.927 276.606C177.531 273.221 178.205 267.645 177.887 263.603C190.167 261.767 202.535 260.585 214.94 260.063L214.945 260.068ZM107.91 308.559C86.6483 301.853 64.3832 298.891 42.1076 299.804C71.7038 280.971 102.331 264.38 131.652 245.613C125.108 267.701 127.962 274.67 151.115 268.621C159.212 266.781 167.339 265.223 175.496 263.947C175.413 267.003 175.586 270.06 176.013 273.086C176.694 279.359 181.051 280.813 186.497 279.647C173.211 289.415 160.531 299.983 148.53 311.292C143.494 315.428 139.366 320.558 136.404 326.362C129.511 316.247 116.943 311.398 107.905 308.554L107.91 308.559ZM197.122 337.327C197.029 337.639 196.815 337.902 196.528 338.057C196.241 338.212 195.904 338.246 195.592 338.153C195.902 337.772 136.488 323.056 141.75 347.993C141.785 348.151 141.788 348.314 141.76 348.473C141.732 348.632 141.673 348.785 141.586 348.921C141.499 349.057 141.386 349.175 141.253 349.267C141.121 349.36 140.972 349.426 140.814 349.461C140.656 349.495 140.493 349.499 140.334 349.471C140.175 349.443 140.023 349.383 139.886 349.296C139.75 349.21 139.632 349.097 139.54 348.964C139.447 348.832 139.381 348.682 139.346 348.525C136.761 338.082 146.972 330.623 159.976 331.029C172.242 330.959 184.46 332.56 196.293 335.789C196.448 335.836 196.592 335.912 196.717 336.014C196.842 336.117 196.946 336.242 197.023 336.385C197.099 336.527 197.147 336.683 197.163 336.844C197.179 337.005 197.164 337.167 197.117 337.322L197.122 337.327ZM233.269 335.211C233.165 335.52 232.943 335.776 232.651 335.921C232.359 336.066 232.021 336.09 231.712 335.986C231.466 335.9 206.352 327.509 187.875 324.933C168.239 322.198 148.121 326.409 142.075 334.512C141.172 335.809 139.108 334.308 140.107 333.036C147.674 322.886 170.529 320.025 188.219 322.49C206.915 325.098 232.253 333.56 232.499 333.646C232.807 333.752 233.061 333.976 233.204 334.268C233.348 334.561 233.369 334.898 233.264 335.206L233.269 335.211ZM270.907 342.239C262.769 335.451 253.413 330.275 243.338 326.987C225.166 320.475 205.98 317.249 186.677 317.46C173.009 318.171 143.359 319.428 136.7 334.992C137.13 326.183 143.282 319.292 150.207 313.098C182.775 281.881 232.413 250.122 271.377 229.433C280.833 224.39 293.726 222.43 309.669 223.596C308.749 224.951 307.925 229.456 306.314 228.873C297.558 227.695 288.696 227.525 279.901 228.366C279.74 228.38 279.582 228.425 279.438 228.5C279.294 228.575 279.167 228.677 279.062 228.801C278.958 228.925 278.879 229.068 278.83 229.223C278.781 229.377 278.763 229.54 278.777 229.702C278.805 230.028 278.961 230.33 279.212 230.54C279.336 230.645 279.479 230.724 279.634 230.773C279.788 230.822 279.951 230.84 280.113 230.826C288.641 230.012 297.235 230.167 305.729 231.288C304.213 233.756 302.507 236.101 300.627 238.302C300.446 238.064 300.183 237.901 299.889 237.847C290.893 236.338 281.732 236.082 272.666 237.087C272.505 237.104 272.348 237.153 272.206 237.231C272.063 237.31 271.937 237.415 271.836 237.542C271.734 237.668 271.658 237.814 271.613 237.97C271.567 238.126 271.553 238.289 271.57 238.451C271.588 238.612 271.637 238.769 271.715 238.911C271.793 239.054 271.899 239.179 272.025 239.281C272.152 239.383 272.297 239.459 272.453 239.504C272.609 239.55 272.773 239.564 272.934 239.547C281.664 238.581 290.484 238.814 299.151 240.238C297.197 242.277 294.764 246.179 292.017 246.592C291.298 246.203 263.918 240.307 271.212 245.77C277.525 246.197 283.791 247.154 289.943 248.631C287.114 251.062 282.504 250.385 279.712 252.653C278.295 253.232 277.38 254.892 278.167 255.923C275.461 255.49 255.761 251.741 255.636 254.998C255.636 255.324 255.765 255.637 255.996 255.868C256.227 256.098 256.539 256.228 256.866 256.228C260.029 256.58 280.536 256.211 276.253 260.038C275.188 261.556 274.826 264.973 277.276 265.187C277.881 264.956 277.328 266.853 277.943 267.492C261.77 261.282 244.383 258.887 227.134 260.493C226.808 260.524 226.507 260.683 226.298 260.935C226.089 261.188 225.989 261.513 226.02 261.839C226.05 262.165 226.209 262.466 226.462 262.675C226.714 262.884 227.039 262.984 227.365 262.953C261.599 259.423 294.905 273.347 318.587 297.307C318.827 297.308 319.063 297.238 319.264 297.106C319.465 296.975 319.623 296.787 319.719 296.566C319.814 296.345 319.843 296.102 319.801 295.865C319.76 295.628 319.65 295.409 319.485 295.234C308.545 283.661 295.255 274.564 280.509 268.552C281.14 268.247 281.667 267.759 282.019 267.153C282.037 267.568 282.174 267.968 282.415 268.307C282.655 268.645 282.988 268.907 283.374 269.061C283.76 269.214 284.182 269.253 284.59 269.172C284.997 269.091 285.372 268.893 285.67 268.604C287.636 266.364 289.858 264.362 292.292 262.641C304.724 267.525 315.942 275.062 325.163 284.727C325.272 284.85 325.405 284.95 325.554 285.021C325.703 285.091 325.865 285.131 326.03 285.138C326.194 285.145 326.359 285.119 326.513 285.061C326.667 285.003 326.809 284.915 326.928 284.802C327.048 284.688 327.143 284.552 327.209 284.401C327.275 284.249 327.31 284.087 327.311 283.922C327.313 283.757 327.282 283.593 327.219 283.441C327.156 283.289 327.063 283.15 326.946 283.034C318.279 273.962 307.886 266.713 296.378 261.714C302.32 261.24 308.135 259.742 313.566 257.286C323.093 262.088 331.876 268.243 339.642 275.558C339.758 275.675 339.897 275.767 340.049 275.829C340.202 275.891 340.365 275.921 340.53 275.919C340.694 275.917 340.857 275.881 341.008 275.815C341.158 275.749 341.294 275.653 341.407 275.533C341.52 275.414 341.608 275.273 341.665 275.118C341.723 274.964 341.748 274.8 341.741 274.635C341.734 274.471 341.694 274.31 341.623 274.161C341.552 274.012 341.453 273.879 341.33 273.77C333.872 266.752 325.498 260.777 316.437 256.006C320.507 254.138 324.413 251.931 328.112 249.406C337.34 253.934 345.84 259.813 353.332 266.85C354.469 267.962 356.203 266.137 355.017 265.059C347.67 258.167 339.376 252.358 330.388 247.81C333.32 245.632 336.068 243.218 338.604 240.59C347.164 244.406 355.232 249.239 362.636 254.986C362.765 255.084 362.912 255.155 363.069 255.196C363.226 255.237 363.389 255.247 363.55 255.225C363.711 255.203 363.866 255.15 364.006 255.068C364.146 254.986 364.268 254.877 364.366 254.748C364.464 254.619 364.536 254.472 364.577 254.315C364.618 254.158 364.628 253.994 364.606 253.834C364.584 253.673 364.531 253.518 364.449 253.378C364.367 253.238 364.258 253.116 364.129 253.018C356.801 247.336 348.84 242.522 340.405 238.673C342.753 236.049 344.874 233.229 346.744 230.245C361.547 234.907 375.624 241.619 388.564 250.186C381.59 254.051 350.434 279.214 338.215 288.122C333.229 291.777 271.163 341.964 270.907 342.234V342.239ZM286.843 259.076C284.504 257.564 280.863 263.785 280.095 265.416C280.789 262.678 282.334 260.23 284.509 258.427C284.747 258.226 284.9 257.942 284.939 257.633C284.978 257.323 284.899 257.011 284.719 256.756C284.538 256.502 284.269 256.325 283.964 256.26C283.659 256.195 283.341 256.247 283.072 256.405C283.743 256.001 284.448 255.657 285.18 255.377C285.428 255.281 285.638 255.108 285.779 254.882C285.92 254.657 285.984 254.393 285.962 254.128C285.941 253.863 285.834 253.613 285.658 253.414C285.482 253.215 285.246 253.079 284.986 253.025C289.32 251.03 292.858 255.239 293.532 259.069C290.037 260.8 286.972 263.286 284.558 266.348C284.893 264.296 285.718 262.355 286.964 260.69C287.143 260.451 287.228 260.155 287.205 259.857C287.181 259.559 287.05 259.28 286.836 259.072L286.843 259.076ZM275.067 372.096L274.182 359.506C281.002 353.351 288.334 347.788 296.098 342.876C296.373 342.701 296.567 342.424 296.638 342.105C296.709 341.787 296.65 341.453 296.475 341.178C296.3 340.902 296.023 340.708 295.704 340.637C295.386 340.566 295.052 340.625 294.777 340.8C287.441 345.452 280.483 350.672 273.965 356.414L273.643 351.826L333.797 302.722C333.922 302.62 334.026 302.494 334.103 302.351C334.179 302.209 334.227 302.053 334.243 301.892C334.259 301.731 334.244 301.569 334.197 301.414C334.151 301.259 334.074 301.115 333.972 300.99C333.87 300.865 333.744 300.761 333.601 300.684C333.459 300.608 333.303 300.56 333.142 300.544C332.981 300.528 332.819 300.543 332.664 300.59C332.509 300.636 332.365 300.713 332.24 300.815L273.431 348.827L273.097 344.067C304.715 319.61 306.125 314.759 361.381 273.632C367.888 268.572 382.375 256.769 389.378 252.476C388.652 256.664 388.276 260.905 388.254 265.155L356.882 290.599C356.685 290.759 356.542 290.976 356.473 291.221C356.405 291.465 356.413 291.725 356.498 291.965C356.583 292.204 356.74 292.411 356.948 292.558C357.155 292.704 357.403 292.783 357.657 292.783C358.316 292.783 355.957 294.505 388.161 268.41C388.112 269.822 388.065 270.98 388.023 271.187C385.684 274.065 297.143 352.495 275.067 372.091V372.096ZM423.299 341.821L431.553 342.254C430.781 352.643 426.663 362.503 419.816 370.355C418.01 368.864 413.174 362.975 411.373 365.068C411.198 365.343 411.14 365.677 411.211 365.995C411.282 366.313 411.477 366.591 411.752 366.765C414.094 368.3 416.242 370.113 418.148 372.165C411.324 379.164 402.778 384.244 393.369 386.896L391.199 379.088C391.104 378.782 390.894 378.525 390.613 378.371C390.332 378.218 390.002 378.18 389.694 378.266C389.385 378.352 389.123 378.554 388.961 378.831C388.8 379.108 388.753 379.436 388.83 379.747L391.019 387.619C381.752 390.045 372.174 391.066 362.604 390.647L363.851 382.322C363.884 382.007 363.794 381.692 363.6 381.441C363.406 381.191 363.123 381.025 362.81 380.978C362.497 380.931 362.177 381.007 361.918 381.189C361.66 381.372 361.481 381.647 361.421 381.958L360.122 390.618C352.384 390.503 344.658 389.98 336.975 389.051C343.571 356.416 349.408 330.07 355.866 303.787C363 296.808 369.753 291.376 374.431 286.963C375.046 288.291 377.056 287.863 378.247 288.296C377.952 290.213 375.58 297.337 378.316 297.755C378.642 297.755 378.955 297.625 379.186 297.395C379.416 297.164 379.546 296.851 379.546 296.525C379.564 293.9 379.943 291.29 380.672 288.769C387.899 290.168 394.949 292.363 401.693 295.312L397.423 302.358C397.339 302.496 397.283 302.649 397.259 302.809C397.235 302.969 397.242 303.132 397.28 303.289C397.319 303.446 397.388 303.594 397.484 303.724C397.58 303.854 397.7 303.964 397.838 304.048C397.977 304.131 398.13 304.187 398.29 304.211C398.45 304.236 398.613 304.229 398.769 304.19C398.926 304.151 399.074 304.082 399.204 303.986C399.335 303.891 399.445 303.77 399.528 303.632L403.934 296.365C413.24 301.059 420.084 306.545 424.815 314.461L418.581 317.575C418.432 317.644 418.297 317.743 418.187 317.865C418.076 317.987 417.991 318.13 417.936 318.285C417.882 318.44 417.859 318.605 417.869 318.77C417.88 318.934 417.923 319.095 417.997 319.242C418.07 319.389 418.173 319.52 418.298 319.627C418.423 319.734 418.569 319.815 418.726 319.865C418.883 319.914 419.048 319.932 419.212 319.916C419.376 319.901 419.536 319.853 419.681 319.775L426.03 316.604C429.86 323.718 431.788 331.701 431.629 339.779L423.43 339.349C423.103 339.331 422.782 339.445 422.538 339.664C422.295 339.883 422.148 340.19 422.131 340.517C422.114 340.844 422.227 341.165 422.446 341.409C422.665 341.652 422.972 341.799 423.299 341.816V341.821Z" fill="#0A0E29"/>
</svg>
