<svg width="73" height="64" viewBox="0 0 73 64" fill="none" xmlns="http://www.w3.org/2000/svg">
<g filter="url(#filter0_d_359_1808)">
<path d="M65 38C65 47.9411 56.9411 56 47 56L20 56C17.2386 56 15 53.7614 15 51L15 17C15 11.4772 19.4772 7 25 7L60 7C62.7614 7 65 9.23858 65 12L65 38Z" fill="#D6DAF5"/>
</g>
<g clip-path="url(#clip0_359_1808)">
<path d="M21.8858 32.9808L37.6358 17.2308C37.7577 17.1088 37.9025 17.0121 38.0618 16.9461C38.2212 16.8801 38.3919 16.8461 38.5644 16.8461C38.7369 16.8461 38.9076 16.8801 39.0669 16.9461C39.2263 17.0121 39.371 17.1088 39.493 17.2308C39.6149 17.3527 39.7117 17.4975 39.7777 17.6568C39.8437 17.8161 39.8776 17.9869 39.8776 18.1594C39.8776 18.3318 39.8437 18.5026 39.7777 18.6619C39.7117 18.8212 39.6149 18.966 39.493 19.088L23.743 34.838C23.621 34.9599 23.4763 35.0566 23.3169 35.1226C23.1576 35.1886 22.9868 35.2226 22.8144 35.2226C22.6419 35.2226 22.4712 35.1886 22.3118 35.1226C22.1525 35.0566 22.0077 34.9599 21.8858 34.838C21.7639 34.716 21.6671 34.5712 21.6011 34.4119C21.5351 34.2526 21.5012 34.0818 21.5012 33.9094C21.5012 33.7369 21.5351 33.5661 21.6011 33.4068C21.6671 33.2475 21.7639 33.1027 21.8858 32.9808ZM24.1269 22.0969C25.267 22.0954 26.3997 22.28 27.4803 22.6432C27.6444 22.7014 27.8184 22.7263 27.9922 22.7166C28.166 22.7069 28.3362 22.6627 28.4927 22.5866C28.6493 22.5104 28.7892 22.4039 28.9042 22.2733C29.0192 22.1426 29.1071 21.9903 29.1627 21.8254C29.2183 21.6604 29.2405 21.486 29.2281 21.3124C29.2156 21.1388 29.1688 20.9693 29.0902 20.814C29.0117 20.6586 28.903 20.5204 28.7706 20.4075C28.6381 20.2945 28.4845 20.209 28.3187 20.156C26.2271 19.4509 23.9914 19.2846 21.8186 19.6726C19.6457 20.0606 17.6057 20.9904 15.8875 22.3758C14.1692 23.7613 12.828 25.5577 11.9881 27.5989C11.1482 29.6401 10.8367 31.8602 11.0823 34.0537C11.1178 34.3746 11.2703 34.671 11.5106 34.8865C11.7509 35.102 12.0622 35.2214 12.3849 35.2219C12.4325 35.2219 12.4817 35.2219 12.531 35.2137C12.8769 35.1753 13.1934 35.0012 13.4109 34.7295C13.6284 34.4578 13.7291 34.1109 13.6909 33.765C13.6482 33.3771 13.6268 32.9871 13.6269 32.5969C13.6299 29.813 14.7372 27.1441 16.7056 25.1756C18.6741 23.2071 21.3431 22.0999 24.1269 22.0969ZM40.4905 24.2297C40.4118 24.0763 40.3038 23.9399 40.1724 23.8282C40.041 23.7166 39.889 23.6319 39.7249 23.5791C39.5608 23.5262 39.388 23.5062 39.2161 23.5201C39.0443 23.5341 38.8769 23.5817 38.7235 23.6604C38.5701 23.739 38.4337 23.8471 38.3221 23.9785C38.2105 24.1098 38.1258 24.2619 38.0729 24.426C38.0201 24.59 38 24.7629 38.014 24.9347C38.0279 25.1065 38.0756 25.2739 38.1542 25.4273C39.1253 27.3342 39.6987 29.4185 39.8397 31.5537C39.9807 33.6889 39.6864 35.8305 38.9745 37.8485L9.26283 37.837C8.43387 35.4608 8.18492 32.9208 8.53675 30.4289C8.88857 27.9369 9.83098 25.5651 11.2854 23.5113C12.7398 21.4574 14.6641 19.781 16.8979 18.6217C19.1317 17.4624 21.6102 16.8539 24.1269 16.8469H24.2713C26.7157 16.8622 29.1222 17.4523 31.2964 18.5695C31.4502 18.6542 31.6195 18.7071 31.7941 18.7252C31.9688 18.7433 32.1453 18.7261 32.3132 18.6748C32.4811 18.6234 32.637 18.5389 32.7716 18.4262C32.9062 18.3135 33.0169 18.175 33.0971 18.0187C33.1772 17.8625 33.2252 17.6918 33.2382 17.5167C33.2512 17.3416 33.2289 17.1657 33.1726 16.9994C33.1164 16.833 33.0274 16.6797 32.9108 16.5484C32.7943 16.4171 32.6526 16.3105 32.4941 16.2349C29.221 14.5584 25.5201 13.9026 21.8702 14.3523C18.2203 14.802 14.7893 16.3365 12.021 18.7574C9.25277 21.1783 7.27458 24.3741 6.34236 27.9315C5.41015 31.4888 5.5668 35.2441 6.79205 38.7115C6.97304 39.2252 7.3087 39.6703 7.75289 39.9855C8.19708 40.3007 8.728 40.4706 9.27267 40.4719H38.9795C39.5239 40.4722 40.0549 40.3033 40.499 39.9885C40.9432 39.6736 41.2785 39.2285 41.4585 38.7148C42.2863 36.3603 42.6273 33.8623 42.4609 31.3721C42.2945 28.8819 41.6242 26.4514 40.4905 24.228V24.2297Z" fill="#0A0E29"/>
</g>
<defs>
<filter id="filter0_d_359_1808" x="15" y="7" width="58" height="57" filterUnits="userSpaceOnUse" color-interpolation-filters="sRGB">
<feFlood flood-opacity="0" result="BackgroundImageFix"/>
<feColorMatrix in="SourceAlpha" type="matrix" values="0 0 0 0 0 0 0 0 0 0 0 0 0 0 0 0 0 0 127 0" result="hardAlpha"/>
<feOffset dx="4" dy="4"/>
<feGaussianBlur stdDeviation="2"/>
<feComposite in2="hardAlpha" operator="out"/>
<feColorMatrix type="matrix" values="0 0 0 0 0 0 0 0 0 0 0 0 0 0 0 0 0 0 0.25 0"/>
<feBlend mode="normal" in2="BackgroundImageFix" result="effect1_dropShadow_359_1808"/>
<feBlend mode="normal" in="SourceGraphic" in2="effect1_dropShadow_359_1808" result="shape"/>
</filter>
<clipPath id="clip0_359_1808">
<rect width="42" height="42" fill="white" transform="translate(3.12524 6.32227)"/>
</clipPath>
</defs>
</svg>
